/* XPM */
static char *_3e01a67a0b24783e98119c1d74057d5QT3NzI5aES1tEpEn[] = {
/* columns rows colors chars-per-pixel */
"64 64 96 2 ",
"   c None",
".  c #1B83EC",
"X  c #1983EE",
"o  c #1A84EC",
"O  c #1A84ED",
"+  c #1F87ED",
"@  c #2387EE",
"#  c #258AED",
"$  c #2589EE",
"%  c #268BEE",
"&  c #298CEE",
"*  c #3292EE",
"=  c #3492EF",
"-  c #3994EF",
";  c #3F98EF",
":  c #3191F0",
">  c #3F97F0",
",  c #4097F1",
"<  c #499EF1",
"1  c #4FA0F1",
"2  c #52A1F0",
"3  c #52A2F1",
"4  c #53A2F1",
"5  c #56A3F1",
"6  c #56A4F2",
"7  c #58A4F1",
"8  c #5BA7F1",
"9  c #61AAF3",
"0  c #62AAF3",
"q  c #66ADF3",
"w  c #60A9F4",
"e  c #68AEF3",
"r  c #69AFF3",
"t  c #6EB1F4",
"y  c #71B3F4",
"u  c #73B4F4",
"i  c #77B6F4",
"p  c #79B6F5",
"a  c #7EB9F5",
"s  c #89C0F6",
"d  c #92C5F7",
"f  c #9BC9F7",
"g  c #9ACAF7",
"h  c #9CCAF7",
"j  c #9DCAF7",
"k  c #9FCAF8",
"l  c #A3CEF8",
"z  c #A4CEF8",
"x  c #A6CFF8",
"c  c #A8D0F8",
"v  c #A9D1F8",
"b  c #ADD3F9",
"n  c #B1D5F9",
"m  c #B3D6F9",
"M  c #B4D7F9",
"N  c #B7D8F9",
"B  c #B8D9F9",
"V  c #BBDBFA",
"C  c #BCDBFA",
"Z  c #BDDBFA",
"A  c #BFDDFA",
"S  c #C1DDFB",
"D  c #C1DEFA",
"F  c #C1DEFB",
"G  c #C4DFFA",
"H  c #C5E0FB",
"J  c #C7E1FB",
"K  c #C8E1FB",
"L  c #C8E2FB",
"P  c #C9E2FB",
"I  c #CBE3FB",
"U  c #CDE4FB",
"Y  c #DDEDFC",
"T  c #E2EFFD",
"R  c #E4F1FD",
"E  c #E9F3FD",
"W  c #EAF3FD",
"Q  c #EAF4FD",
"!  c #EBF4FD",
"~  c #F0F7FE",
"^  c #F1F7FE",
"/  c #F2F8FE",
"(  c #F3F8FE",
")  c #F4F9FE",
"_  c #F5FAFE",
"`  c #F6FAFE",
"'  c #F7FBFE",
"]  c #F8FBFF",
"[  c #F9FCFF",
"{  c #FAFCFF",
"}  c #FBFDFF",
"|  c #FCFDFF",
" . c #FCFEFF",
".. c #FDFEFF",
"X. c #FEFFFF",
"o. c white",
/* pixels */
"                                                                                                                                ",
"                                                                                                                                ",
"                                                                                                                                ",
"                                                                                                                                ",
"                                                                                                                                ",
"                                                                                                                                ",
"                                                                                                                                ",
"                                                                                                                                ",
"                                                                                                                                ",
"                                                                                                                                ",
"                                                                                                                                ",
"                                                                                                                                ",
"                                                                                                                                ",
"                                                                                                                                ",
"                                                                                                                                ",
"                                                                                                                                ",
"                                                                                                                                ",
"                                                                                                                                ",
"                                                                                                                                ",
"                                                                                                                                ",
"                                                                                                                                ",
"                                                                                                                                ",
"                                                                                                                                ",
"                                                                                                                                ",
"                                                                                                                                ",
"                                                                                                                                ",
"                                                                                                                                ",
"                                                                                                                                ",
"                                                                                                                                ",
"                                                                                                                                ",
"                                                                                                                                ",
"                                                                                                                                ",
"                                                                                                                                ",
"                                                                                                                                ",
"                                                                                                                                ",
"                                                                                                                                ",
"                                                                                                                                ",
"                                                                                                                                ",
"                                                                                                                                ",
"                                                                                                                                ",
"                                                                                                                                ",
"                                                                                                                                ",
"                                                                                                                                ",
"                                                                                                                                ",
"                                                                                                                                ",
"                                                                .                                                               ",
"                                                                %             O                                                 ",
"                                                                1             @                                                 ",
"                                                                u >         - %                                                 ",
"                                                    O           s y         q                                                   ",
"                                                    + 9         g g       q t                                                   ",
"                                                      f d       c P 7   4 z 7                                                   ",
"                                                      g Y k     A E S z H P p < 9 %                                             ",
"                                                      l ! ! A M T { ) / ) ! I J b       .                                       ",
"                                                    6 J [ | [ ) | | | | | | [ ) G   > &                                         ",
"                                                    4 U | | | | | | | | | | | | R B u                                           ",
"                                                  O 5 S [ | | | | | | | | | | | ! l                                             ",
"                                                    4 A ) | | | | | | | | | | ) M =                                             ",
"                                                      0 S ! ) [ | | | [ [ [ ! B ,                                               ",
"                                                        * i j n S P I J A c a *                                                 ",
"                                                                                                                                ",
"                                                                                                                                ",
"                                                                                                                                ",
"                                                                                                                                "
};
