/* XPM */
static char *_a4eecff05af41a8a2a3432dc216ff448jrSVbDxqywNUcOv[] = {
/* columns rows colors chars-per-pixel */
"64 64 123 2 ",
"   c None",
".  c #1582ED",
"X  c #1C85ED",
"o  c #2087ED",
"O  c #258AEE",
"+  c #2D8EEE",
"@  c #308FEE",
"#  c #2F90EE",
"$  c #3492EF",
"%  c #3995EF",
"&  c #3C96F0",
"*  c #3F98F0",
"=  c #449BF0",
"-  c #4A9EF1",
";  c #4FA1F1",
":  c #53A3F2",
">  c #5AA6F2",
",  c #5EA8F2",
"<  c #65ACF3",
"1  c #69AFF3",
"2  c #6EB1F4",
"3  c #73B4F4",
"4  c #79B7F4",
"5  c #7CB9F5",
"6  c #84BDF5",
"7  c #88BFF6",
"8  c #8CC1F6",
"9  c #94C6F7",
"0  c #98C7F7",
"q  c #9CCAF7",
"w  c #A3CEF8",
"e  c #A7D0F8",
"r  c #ABD2F8",
"t  c #B1D5F9",
"y  c #B2D6F9",
"u  c #B3D6F9",
"i  c #B4D7F9",
"p  c #B5D7F9",
"a  c #B6D8F9",
"s  c #B7D9F9",
"d  c #B8D9F9",
"f  c #B9DAFA",
"g  c #BADAFA",
"h  c #BBDAFA",
"j  c #BCDBFA",
"k  c #BEDCFA",
"l  c #BFDCFA",
"z  c #BFDDFA",
"x  c #C0DDFA",
"c  c #C1DEFA",
"v  c #C2DEFA",
"b  c #C3DEFA",
"n  c #C3DFFA",
"m  c #C4DFFA",
"M  c #C5E0FB",
"N  c #C6E0FA",
"B  c #C6E0FB",
"V  c #C7E1FB",
"C  c #C5E0FA",
"Z  c #C8E2FB",
"A  c #C9E2FB",
"S  c #CAE2FB",
"D  c #CAE3FB",
"F  c #CBE3FB",
"G  c #CCE3FB",
"H  c #CCE4FB",
"J  c #CDE4FB",
"K  c #CEE5FB",
"L  c #CFE5FB",
"P  c #D0E6FB",
"I  c #D1E6FB",
"U  c #D2E7FB",
"Y  c #D4E8FC",
"T  c #D5E9FC",
"R  c #D6E9FC",
"E  c #D7E9FC",
"W  c #D7EAFC",
"Q  c #D3E8FC",
"!  c #D8EAFC",
"~  c #D9EAFC",
"^  c #D9EBFC",
"/  c #DAEBFC",
"(  c #DBEBFC",
")  c #DCECFC",
"_  c #DDECFC",
"`  c #DDEDFC",
"'  c #DEEDFC",
"]  c #DFEEFC",
"[  c #DEEEFC",
"{  c #E0EEFD",
"}  c #E0EFFD",
"|  c #E1EFFD",
" . c #E2EFFD",
".. c #E2F0FD",
"X. c #E3F0FD",
"o. c #E4F0FD",
"O. c #E6F1FD",
"+. c #E8F3FD",
"@. c #EAF4FD",
"#. c #EBF4FD",
"$. c #ECF5FD",
"%. c #ECF5FE",
"&. c #EDF6FE",
"*. c #EFF7FE",
"=. c #EAF4FD",
"-. c #F1F7FE",
";. c #F1F7FE",
":. c #F1F8FE",
">. c #F2F8FE",
",. c #F3F8FE",
"<. c #F4F9FE",
"1. c #F5F9FE",
"2. c #F6FAFE",
"3. c #F7FBFE",
"4. c #F6FAFE",
"5. c #F8FBFE",
"6. c #F9FCFF",
"7. c #FAFCFF",
"8. c #FBFDFF",
"9. c #FDFEFF",
"0. c #FEFFFF",
"q. c white",
"w. c #FEFEFF",
/* pixels */
"                                            < f                         w 0.5                                                   ",
"                                            9 r                       + V 2.3                                                   ",
"                                            x 5                       > $.@.<                                                   ",
"                                          = L :                     9 i 2.5.8                                                   ",
"                                          6 f +                       > f 0.r +                                                 ",
"                                          j 9 +                       $ w 0.j $                                                 ",
"                                          L 9 $                       $ 7 -.} :                                                 ",
"                                          e f =                       + 2 ~ 2.7                                                 ",
"                                          , L f w 9                     5 $.~ 2                                                 ",
"                                          O 6 +.6 -                   + 6 2.~ :                                                 ",
"                                            = Q r o                   $ 5  .>.<                                                 ",
"                                            + y V %                   = y 0.~ =                                                 ",
"                                              5 _ 7 o                 0 3.@.5                                                   ",
"                                              - 0 L -               + f 0.f &                                                   ",
"                                                = x 9 o             % y 0.f +                                                   ",
"                                                $ 7 L -             ; U 0.8                                                     ",
"                                                  : R 5             3 2.R :                                                     ",
"                                                  & k r +           w 5.w =                                                     ",
"                                                  = w R >           w 5.w &                                                     ",
"                                                  - x x =         + 5 -.) 3                                                     ",
"                                                # q / 6           + 3 U 0.j 0                                                   ",
"                                                < F 5 #           % 5 } -.<                                                     ",
"                                                8 7 %             : r 5.Q $                                                     ",
"                                              % a 3 X           & 7 $. .<                                                       ",
"                                            $ r } r 4         = 5 R 6.w $                                                       ",
"                                            w F 3 2 8 X O , 2 6 m 0.D 1                                                         ",
"                                          > _ 6 & , $ - 9 D V V >.5.r >                                                         ",
"                                          = R 7 $ & - x w 6 9 f _ 0.a >                                                         ",
"                                          + r w + $ 8 e > : , 3 y 6.~ 3 @                                                       ",
"                                          O < k = & r 3 $     % < V 6.w -                                                       ",
"                                          O = w < q / <         + 2 O.X.9 -                                                     ",
"                                          o - y a 9 7 q e         # 8 _ >.D ;                                                   ",
"                                          X 3 M 0 : $               % 2 a 5.w &                                                 ",
"                                          O r 0 e : +                 & 5 } 2.x >                                               ",
"                                          = R > < 0 -                   : 9 O.} =                                               ",
"                                          & U 2 O : w =                 & 4 R L +                                               ",
"                                          O q r % X > :                 $ 3 O.e O                                               ",
"                                            = V 9 o + $                 $ 2 _ w                                                 ",
"                                            o 4 / < X X                 = q $.w                                                 ",
"                                              # w a & O                 < X.~ 9                                                 ",
"                                                5 L < : 2 r a ;       + w _ 1 9 r                                               ",
"                                                , _ y k a 6 3 q $     & x ~ -                                                   ",
"                                                w ~ } 9 < = % 2 f r 3 = r @.<                                                   ",
"                                              a , > m 5 - + o $ w 1 3 > 9 @.2                                                   ",
"                                                  + w 9 @     : 7 $ 4 6 Y Q &                                                   ",
"                                                    5 y o     3 < + e } +.6                                                     ",
"                                                    7 9       < = , O.2.G <                                                     ",
"                                                    q >         - 8 2.} D 3 $                                                   ",
"                                                    r -         = a >.F L 9 :                                                   ",
"                                                  = y :         : R V w r x x 2 O                                               ",
"                                                  : 8 &         ; L w 5 1 < 9 F 7                                               ",
"                                                    0           = U w = & = : 0 r                                               ",
"                                                    8 1         = V <       % 9 0                                               ",
"                                                      7 &   . . : 0 o       & q %                                               ",
"                                                      & < + O X 3 : .       9 1                                                 ",
"                                                    X = 7 9 7 4 6 + X                                                           ",
"                                                    3 Y 2.0.6.5._ 8 @                                                           ",
"                                                  1 $.0.0.0.0.0.0.6.r                                                           ",
"                                                  R 0.0.0.0.0.0.0.0.6.9                                                         ",
"                                                  _ -.2.5.0.0.0.0.2.+.q                                                         ",
"                                                      2 6 9 0 0 7 3                                                             ",
"                                                                                                                                ",
"                                                                                                                                ",
"                                                                                                                                "
};
